<svg width="512" height="512" viewBox="0 0 512 512" fill="none" xmlns="http://www.w3.org/2000/svg">
  <rect width="512" height="512" rx="106" fill="url(#gradient)"/>
  <path d="M160 192C160 177.088 172.088 165 187 165H325C339.912 165 352 177.088 352 192V320C352 334.912 339.912 347 325 347H187C172.088 347 160 334.912 160 320V192Z" fill="white" fill-opacity="0.9"/>
  <rect x="192" y="197" width="128" height="10" rx="5" fill="#10B981"/>
  <rect x="192" y="224" width="106" height="8" rx="4" fill="#10B981" fill-opacity="0.7"/>
  <rect x="192" y="245" width="117" height="8" rx="4" fill="#10B981" fill-opacity="0.7"/>
  <rect x="192" y="266" width="96" height="8" rx="4" fill="#10B981" fill-opacity="0.7"/>
  <rect x="192" y="287" width="128" height="8" rx="4" fill="#10B981" fill-opacity="0.7"/>
  <rect x="192" y="308" width="85" height="8" rx="4" fill="#10B981" fill-opacity="0.7"/>
  <defs>
    <linearGradient id="gradient" x1="0" y1="0" x2="512" y2="512" gradientUnits="userSpaceOnUse">
      <stop stop-color="#10B981"/>
      <stop offset="1" stop-color="#059669"/>
    </linearGradient>
  </defs>
</svg>